# xmcd
#
# Track frame offsets:
#	150
#	11744
#	25021
#	36948
#	48898
#	57182
#	70059
#	84369
#	97943
#	113993
#	124255
#	136884
#	149731
#	161548
#	174763
#	187410
#	201119
#	213439
#	223073
#	232707
#
# Disc length: 3279 seconds
#
# Revision: 0
# Processed by: cddbd v1.4PL0 Copyright (c) Steve Scherf et al.
# Submitted via: EasyCDDAExtractor 4.5.0.2
#
DISCID=180ccd14
DTITLE=Merle Haggard - Golden Era
DYEAR=1900
DGENRE=Country
TTITLE0=My Friends Are gonna Be Strangers
TTITLE1=Swinging Doors
TTITLE2=Sing A Sad Song
TTITLE3=Who'll Buy The Wine
TTITLE4=Walking The Floor Over You
TTITLE5=The Bottle Let Me Down
TTITLE6=Branded Man
TTITLE7=The Fugitive
TTITLE8=Hungry Eyes
TTITLE9=Mama Tried
TTITLE10=Silver Wings
TTITLE11=Sing Me back Home
TTITLE12=I'm An Old, Old Man
TTITLE13=I'LL Break Out Again Tonight
TTITLE14=I Never Go Around Mirrors
TTITLE15=Holding Things Together
TTITLE16=Goodbye Lefty
TTITLE17=Moaning The Blues
TTITLE18=Hag's Dixie Blues
TTITLE19=Cherokee Maiden
EXTD=
EXTT0=
EXTT1=
EXTT2=
EXTT3=
EXTT4=
EXTT5=
EXTT6=
EXTT7=
EXTT8=
EXTT9=
EXTT10=
EXTT11=
EXTT12=
EXTT13=
EXTT14=
EXTT15=
EXTT16=
EXTT17=
EXTT18=
EXTT19=
PLAYORDER=
